<svg width="24" height="24" viewBox="0 0 24 24" fill="none" xmlns="http://www.w3.org/2000/svg">
<path d="M6.75 3C5.75544 3 4.80161 3.39509 4.09835 4.09835C3.39509 4.80161 3 5.75544 3 6.75V17.25C3 18.2446 3.39509 19.1984 4.09835 19.9017C4.80161 20.6049 5.75544 21 6.75 21H17.25C18.2446 21 19.1984 20.6049 19.9017 19.9017C20.6049 19.1984 21 18.2446 21 17.25V6.75C21 5.75544 20.6049 4.80161 19.9017 4.09835C19.1984 3.39509 18.2446 3 17.25 3H6.75ZM4.5 6.75C4.5 6.15326 4.73705 5.58097 5.15901 5.15901C5.58097 4.73705 6.15326 4.5 6.75 4.5H11.25V11.25H4.5V6.75ZM4.5 12.75H11.25V19.5H6.75C6.15326 19.5 5.58097 19.2629 5.15901 18.841C4.73705 18.419 4.5 17.8467 4.5 17.25V12.75ZM12.75 11.25V4.5H17.25C17.8467 4.5 18.419 4.73705 18.841 5.15901C19.2629 5.58097 19.5 6.15326 19.5 6.75V11.25H12.75ZM18.156 14.469C18.2258 14.5387 18.2813 14.6214 18.3191 14.7126C18.3569 14.8037 18.3763 14.9013 18.3763 15C18.3763 15.0987 18.3569 15.1963 18.3191 15.2874C18.2813 15.3786 18.2258 15.4613 18.156 15.531L15.906 17.781C15.8363 17.8508 15.7536 17.9063 15.6624 17.9441C15.5713 17.9819 15.4737 18.0013 15.375 18.0013C15.2763 18.0013 15.1787 17.9819 15.0876 17.9441C14.9964 17.9063 14.9137 17.8508 14.844 17.781L13.719 16.656C13.5782 16.5152 13.4991 16.3242 13.4991 16.125C13.4991 15.9258 13.5782 15.7348 13.719 15.594C13.8598 15.4532 14.0508 15.3741 14.25 15.3741C14.4492 15.3741 14.6402 15.4532 14.781 15.594L15.375 16.1895L17.094 14.469C17.1637 14.3992 17.2464 14.3437 17.3376 14.3059C17.4287 14.2681 17.5263 14.2487 17.625 14.2487C17.7237 14.2487 17.8213 14.2681 17.9124 14.3059C18.0036 14.3437 18.0863 14.3992 18.156 14.469Z" fill="black"/>
</svg>
